<?xml version="1.0" encoding="utf-8"?>
<!-- Generator: Adobe Illustrator 25.2.1, SVG Export Plug-In . SVG Version: 6.00 Build 0)  -->
<svg version="1.1" id="Layer_1" xmlns="http://www.w3.org/2000/svg" xmlns:xlink="http://www.w3.org/1999/xlink" x="0px" y="0px"
	 viewBox="0 0 1211 1068" style="enable-background:new 0 0 1211 1068;" xml:space="preserve">
<style type="text/css">
	.st0{fill:url(#SVGID_1_);}
	.st1{fill:url(#SVGID_2_);}
	.st2{opacity:0.55;}
	.st3{fill:#FFFFFF;}
	.st4{fill:#15354C;}
	.st5{fill:#90C7DD;}
	.st6{fill:#5F99C1;}
	.st7{opacity:6.000000e-02;}
	.st8{fill:#101E33;}
	.st9{fill:#09121E;}
	.st10{opacity:0.57;}
	.st11{fill:#345D9D;}
	.st12{fill:#F7931A;}
	.st13{fill:#FFFFFF;stroke:#1691D6;stroke-miterlimit:10;}
	.st14{fill:#8AE297;}
	.st15{fill:#AFFF5A;}
	.st16{fill:#067F1A;}
	.st17{fill:#7CFF6E;}
	.st18{fill:#27526D;}
	.st19{fill:#FFFFFF;stroke:#7ABC96;stroke-miterlimit:10;}
</style>
<linearGradient id="SVGID_1_" gradientUnits="userSpaceOnUse" x1="606.5" y1="942.8854" x2="606.5" y2="-66.869">
	<stop  offset="0" style="stop-color:#FFFFFF"/>
	<stop  offset="0.1153" style="stop-color:#FBFDFC"/>
	<stop  offset="0.2326" style="stop-color:#EFF8F3"/>
	<stop  offset="0.3509" style="stop-color:#DAEFE4"/>
	<stop  offset="0.4699" style="stop-color:#BEE3CF"/>
	<stop  offset="0.5895" style="stop-color:#99D3B4"/>
	<stop  offset="0.7095" style="stop-color:#6CC094"/>
	<stop  offset="0.8277" style="stop-color:#37AA6D"/>
	<stop  offset="0.9367" style="stop-color:#009245"/>
</linearGradient>
<path class="st0" d="M65,1084l184.8-671.6c16.6-47.6,51.7-57.6,78.1-22.4l137,128.2C488,537,509,536,543.1,496l101.1-171.2
	c16.6-47.5,54-62.1,83.1-32.4L852,420.1c29.1,29.7,76,28.3,104.3-3.2l19.3-21.5c28.3-31.5,61-15.6,72.7,35.4l96.2,560.6
	c11.7,51-7.2,92.5-42,92.3C1102.5,1083.7,65,1078.2,65,1084z"/>
<linearGradient id="SVGID_2_" gradientUnits="userSpaceOnUse" x1="589.5757" y1="1095.5254" x2="589.5757" y2="439.5927">
	<stop  offset="0" style="stop-color:#FFFFFF"/>
	<stop  offset="0.2992" style="stop-color:#FDFEFF"/>
	<stop  offset="0.4335" style="stop-color:#F6FBFE"/>
	<stop  offset="0.5348" style="stop-color:#E9F6FC"/>
	<stop  offset="0.6197" style="stop-color:#D7EFFA"/>
	<stop  offset="0.6942" style="stop-color:#BFE6F6"/>
	<stop  offset="0.7615" style="stop-color:#A2DBF2"/>
	<stop  offset="0.8233" style="stop-color:#80CDEE"/>
	<stop  offset="0.8798" style="stop-color:#59BEE8"/>
	<stop  offset="0.932" style="stop-color:#2DADE3"/>
	<stop  offset="0.9362" style="stop-color:#29ABE2"/>
</linearGradient>
<path class="st1" d="M107.9,809.1l191.7-162.8c30.6-26,88.5-48.1,128.6-49.1l269.5-6.8c40.1-1,103.4-14.2,140.6-29.3l31.1-12.6
	c37.2-15.1,90.5-3.8,118.4,25l61.9,63.9c27.9,28.8,32.7,81,51.2,116.7l58,121c18.5,35.6-7.8,57-48,57l-937,9
	c-40.1,0-171.8-25.5-159-40C15,901,96,822,107.9,809.1z"/>
<g class="st2">
	<g>
		<g>
			<path class="st3" d="M464.1,830.2c0,0-57.5-302.8,112.1-455.7s269.1-157.6,269.1-157.6s-68.7,132.9-159.7,200.8
				s-199,165.3-207.4,414L464.1,830.2z"/>
		</g>
	</g>
	<g>
		<g>
			<path class="st3" d="M432.8,842.7c0,0,23.6-137.3-43.7-246.1S25.2,378.4-100.5,525.9c0,0,104.8,6.1,210.2,28.1
				c138.4,28.9,305.2,142.8,309.2,285.8L432.8,842.7z"/>
		</g>
	</g>
	<g>
		<g>
			<path class="st3" d="M436.4,832.8c0,0-27.6-259-98.6-403.6c-48.8-99.4-28.2-170.8-28.2-170.8s84.5,62.1,112.7,124.2
				c28.2,62.1,42.3,403.6,42.3,450.2H436.4z"/>
		</g>
	</g>
	<g>
		<g>
			<path class="st3" d="M464.6,832.8c42.3-77.6,98.6-108.7,154.9-124.2c56.3-15.5,112.7-15.5,154.9-15.5c42.3,0,42.3,0,42.3,0
				s-28.2,46.6-154.9,77.6C535,801.8,549.1,832.8,464.6,832.8z"/>
		</g>
	</g>
	<g>
		<g>
			<path class="st3" d="M415.3,832.8c-26-110.5-47.9-132-148.3-147.5c0,0,19.1,54.1,52.1,70.1c26,12.7,53.6,53.8,66.5,77.3H415.3z"
				/>
		</g>
	</g>
	<g>
		<g>
			<rect x="373.5" y="820.7" class="st3" width="123.6" height="31"/>
		</g>
	</g>
	<g>
		<g>
			<polygon class="st3" points="473.5,980.1 492.9,850.1 377.7,850.1 397.1,980.1 			"/>
		</g>
	</g>
</g>
<g>
	<path class="st4" d="M608.6,814.9h33.8V125.7c0-0.8-0.7-1.5-1.5-1.5h-30.7c-0.8,0-1.5,0.7-1.5,1.5V814.9z"/>
</g>
<g>
	<path class="st5" d="M870.1,950.5v36.4H377.4v-35.5c0-38,33.9-68.8,75.8-68.8h342.1C836.6,882.6,870.1,913,870.1,950.5z"/>
</g>
<g>
	<path class="st6" d="M751,844.8v37.7H503.7v-37.7c0-25,20.3-45.3,45.3-45.3h156.8C730.7,799.5,751,819.8,751,844.8z"/>
</g>
<g>
	<path class="st5" d="M870.1,950.5v36.4H415.4v-35.5c0-38,33.9-68.8,75.8-68.8h304.2C836.6,882.6,870.1,913,870.1,950.5z"/>
</g>
<g>
	<path class="st6" d="M751,844.8v37.7H541.6v-37.7c0-25,20.3-45.3,45.3-45.3h118.8C730.7,799.5,751,819.8,751,844.8z"/>
</g>
<g class="st7">
	<g>
		<path class="st8" d="M491.1,882.6c-41.8,0-75.8,30.8-75.8,68.8v35.5h-38v-35.5c0-38,33.9-68.8,75.8-68.8H491.1z"/>
	</g>
</g>
<g class="st7">
	<g>
		<path class="st9" d="M586.9,799.5c-25,0-45.3,20.3-45.3,45.3v37.7h-38v-37.7c0-25,20.3-45.3,45.3-45.3H586.9z"/>
	</g>
</g>
<g>
	<g>
		<path class="st4" d="M266.2,146.1l0.1,0.9c0.4,5.9,5.5,10.3,11.3,9.9l713.9-49.3c5.9-0.4,10.3-5.5,9.9-11.3l-0.1-0.9
			c-0.4-5.9-5.5-10.3-11.3-9.9l-713.9,49.3C270.2,135.2,265.8,140.3,266.2,146.1z"/>
	</g>
</g>
<g>
	<circle class="st5" cx="625.5" cy="124.2" r="25.7"/>
</g>
<g>
	<polygon class="st4" points="369.5,416.6 287.4,148.4 182.6,414.5 178.3,412.8 287.9,134.3 374,415.2 	"/>
</g>
<g>
	<polygon class="st4" points="884.9,365.2 880.6,363.5 990.1,85.4 1088.6,363.6 1084.2,365.1 989.8,98.7 	"/>
</g>
<polygon class="st3" points="271,302 239,351 242,386 259.8,391 313,388 318,364 293,299 "/>
<g>
	<g>
		<path class="st5" d="M330.4,464.8H222.1c-26.3,0-47.7-21.3-47.7-47.7v-7h203.7v7C378.1,443.5,356.7,464.8,330.4,464.8z"/>
	</g>
</g>
<g>
	<g>
		<path class="st5" d="M1041.3,413.9H932.2c-29,0-52.4-23.5-52.4-52.4v-2.2h213.9v2.2C1093.7,390.4,1070.2,413.9,1041.3,413.9z"/>
	</g>
</g>
<g class="st10">
	<path class="st3" d="M299,358.8c-1.5-2-3.6-3.4-6.2-4.3c2-1,3.5-2.4,4.6-4.1c1.1-1.7,1.6-3.7,1.6-5.9c0-3.7-1.5-6.6-4.6-8.8
		c-3.1-2.2-7.6-3.3-13.5-3.3h-1.3v-4.5h-5.4v4.5h-4.6v-4.5h-5.4v4.5h-6.9v46.2h6.9v4.7h5.4v-4.7h4.6v4.7h5.4v-4.7h2.6
		c6.2,0,10.9-1.1,14.1-3.3c3.3-2.2,4.9-5.3,4.9-9.4C301.2,363.1,300.5,360.7,299,358.8z M270.2,341.8h9c0.1,0,0.3,0,0.4,0
		c4.1,0.1,6.2,1.6,6.2,4.4c0,2.9-2.1,4.4-6.2,4.5c-0.1,0-0.3,0-0.4,0h-9V341.8z M281.2,369.1h-11v-9.4h11c4.6,0,6.9,1.6,6.9,4.7
		C288,367.6,285.7,369.1,281.2,369.1z"/>
</g>
<path class="st11" d="M279.2,292.3c-31.4,0-56.8,25.4-56.8,56.8s25.4,56.8,56.8,56.8s56.8-25.4,56.8-56.8l0,0l0,0
	c0.1-31.3-25.2-56.7-56.4-56.8c0,0,0,0,0,0H279.2z M280.2,351l-5.9,19.9h31.6c0.9,0,1.6,0.7,1.6,1.5c0,0,0,0,0,0v0.5l-2.7,9.5
	c-0.2,0.9-1.1,1.6-2.1,1.5h-48.4l8.1-27.6l-9.1,2.7l2.1-6.3l9.1-2.7l11.4-38.8c0.3-0.9,1.1-1.5,2.1-1.5h12.2c0.9,0,1.6,0.7,1.6,1.5
	c0,0,0,0,0,0v0.5l-9.6,32.7l9.1-2.7l-1.9,6.6L280.2,351z"/>
<g id="Layer_x0020_1">
	<g id="_1421344023328">
		<path class="st12" d="M1046.2,309.9c-8,32.3-40.8,51.9-73,43.9c-32.3-8-51.9-40.8-43.9-73c8-32.3,40.7-51.9,73-43.9
			C1034.6,244.9,1054.2,277.6,1046.2,309.9L1046.2,309.9L1046.2,309.9z"/>
		<path class="st3" d="M1014.3,286.7c1.2-8-4.9-12.3-13.3-15.2l2.7-10.9l-6.6-1.6l-2.6,10.6c-1.7-0.4-3.5-0.8-5.3-1.2l2.7-10.6
			l-6.6-1.6l-2.7,10.9c-1.4-0.3-2.9-0.7-4.2-1l0,0l-9.1-2.3l-1.8,7.1c0,0,4.9,1.1,4.8,1.2c2.7,0.7,3.2,2.4,3.1,3.8l-3.1,12.4
			c0.2,0,0.4,0.1,0.7,0.2c-0.2-0.1-0.5-0.1-0.7-0.2l-4.3,17.3c-0.3,0.8-1.2,2-3,1.6c0.1,0.1-4.8-1.2-4.8-1.2l-3.3,7.6l8.6,2.1
			c1.6,0.4,3.2,0.8,4.7,1.2l-2.7,11l6.6,1.6l2.7-10.9c1.8,0.5,3.6,0.9,5.3,1.4l-2.7,10.8l6.6,1.6l2.7-11c11.3,2.1,19.8,1.3,23.3-8.9
			c2.9-8.2-0.1-13-6.1-16C1010.2,295.4,1013.4,292.6,1014.3,286.7L1014.3,286.7L1014.3,286.7z M999.2,307.9
			c-2,8.2-15.9,3.8-20.4,2.7l3.6-14.6C987,297.1,1001.3,299.3,999.2,307.9L999.2,307.9z M1001.2,286.6c-1.9,7.5-13.4,3.7-17.1,2.7
			l3.3-13.2C991.2,277,1003.2,278.8,1001.2,286.6L1001.2,286.6z"/>
	</g>
</g>
<g>
	<g>
		<g>
		</g>
	</g>
</g>
<circle class="st13" cx="239" cy="698" r="5.5"/>
<circle class="st13" cx="921.5" cy="543.5" r="5.5"/>
<circle class="st13" cx="1025" cy="612" r="5.5"/>
<circle class="st13" cx="770" cy="580" r="5.5"/>
<circle class="st13" cx="571" cy="594" r="5.5"/>
<circle class="st13" cx="387" cy="604" r="5.5"/>
<g>
	<g>
		<path class="st14" d="M230.8,832.9c0,0,27-128.9-52.6-194S52,571.8,52,571.8s32.2,56.6,75,85.5c42.7,28.9,93.4,70.4,97.3,176.2
			L230.8,832.9z"/>
	</g>
	<g>
		<path class="st15" d="M245.5,838.2c0,0-11.1-58.4,20.5-104.8c31.6-46.3,170.7-92.9,229.7-30.1c0,0-49.2,2.6-98.6,12
			C332.2,727.6,253.9,776.1,252,837L245.5,838.2z"/>
	</g>
	<g>
		<path class="st16" d="M243.8,834c0,0,13-110.3,46.3-171.8c22.9-42.3,13.2-72.7,13.2-72.7s-39.7,26.4-52.9,52.9
			c-13.2,26.4-19.8,171.8-19.8,191.7H243.8z"/>
	</g>
	<g>
		<path class="st17" d="M253.7,834c12.2-47.1,22.5-56.2,69.6-62.8c0,0-9,23-24.5,29.9c-12.2,5.4-25.1,22.9-31.2,32.9H253.7z"/>
	</g>
	<g>
		<rect x="171.1" y="827.5" class="st18" width="136.2" height="31"/>
	</g>
	<g>
		<polygon class="st4" points="197.1,986.9 175.8,856.9 302.7,856.9 281.4,986.9 		"/>
	</g>
</g>
<circle class="st19" cx="216" cy="537" r="5.5"/>
<circle class="st19" cx="330" cy="392" r="5.5"/>
<circle class="st19" cx="406" cy="464" r="5.5"/>
<circle class="st19" cx="544" cy="495" r="5.5"/>
<circle class="st19" cx="692" cy="277" r="5.5"/>
<circle class="st19" cx="795" cy="362" r="5.5"/>
<circle class="st19" cx="907" cy="441" r="5.5"/>
</svg>
